<svg width="512" height="512" viewBox="0 0 512 512" fill="none" xmlns="http://www.w3.org/2000/svg">
<rect width="512" height="512" fill="#0A0A0A"/>
<path d="M217.404 256.604H286.337C296.82 256.604 305.661 253.383 312.862 246.942C320.168 240.501 323.821 231.342 323.821 219.466C323.821 210.71 320.009 202.86 312.385 195.915C304.761 188.87 296.078 185.348 286.337 185.348H188.179V381H176.743V174.478H286.337C299.255 174.478 310.638 179.058 320.485 188.216C330.333 197.274 335.257 207.691 335.257 219.466C335.257 233.959 330.492 245.583 320.962 254.339C311.432 263.095 299.89 267.473 286.337 267.473H217.404V256.604ZM217.404 278.343H286.337C302.855 278.343 317.044 272.858 328.903 261.888C340.763 250.817 346.693 236.676 346.693 219.466C346.693 204.671 340.604 191.688 328.427 180.517C316.356 169.245 302.326 163.609 286.337 163.609H165.307V381H153.872V152.739H286.337C298.937 152.739 310.744 155.809 321.756 161.948C332.874 168.087 341.716 176.34 348.281 186.707C354.846 196.972 358.128 207.892 358.128 219.466C358.128 239.293 351.034 255.899 336.845 269.285C322.762 282.57 305.926 289.213 286.337 289.213H217.404V278.343ZM217.404 300.082H286.337C301.161 300.082 314.926 296.61 327.633 289.665C340.339 282.721 350.504 273.059 358.128 260.68C365.752 248.2 369.564 234.462 369.564 219.466C369.564 205.879 365.752 193.148 358.128 181.272C350.61 169.295 340.445 159.734 327.633 152.588C314.82 145.442 301.055 141.87 286.337 141.87H142.436V381H131V131H286.337C302.961 131 318.579 135.076 333.192 143.228C347.804 151.28 359.399 162.149 367.976 175.837C376.659 189.424 381 203.967 381 219.466C381 237.381 376.923 253.132 368.77 266.719C360.723 280.306 349.763 290.924 335.892 298.572L365.435 381H353.363L325.091 303.705C320.856 305.316 317.626 306.423 315.403 307.027L341.928 381H329.856L303.967 309.593C303.014 309.794 299.626 310.147 293.802 310.65L318.421 381H306.349L282.048 310.952H271.724L294.914 381H282.842L259.494 310.952H217.404V300.082ZM211.051 381H199.615V196.217H286.337C293.431 196.217 299.52 198.532 304.602 203.162C309.791 207.691 312.385 213.126 312.385 219.466C312.385 236.978 303.702 245.734 286.337 245.734H217.404V234.865H286.337C290.89 234.865 294.437 233.758 296.978 231.543C299.626 229.229 300.949 225.203 300.949 219.466C300.949 215.944 299.52 213.025 296.661 210.71C293.908 208.295 290.466 207.087 286.337 207.087H211.051V381Z" fill="#BF4040"/>
</svg>
